<?xml version="1.0" standalone="no"?>
<!DOCTYPE svg PUBLIC "-//W3C//DTD SVG 20010904//EN"
 "http://www.w3.org/TR/2001/REC-SVG-20010904/DTD/svg10.dtd">
<svg version="1.0" xmlns="http://www.w3.org/2000/svg"
 width="920.000000pt" height="920.000000pt" viewBox="0 0 920.000000 920.000000"
 preserveAspectRatio="xMidYMid meet">
<metadata>
Created by potrace 1.14, written by Peter Selinger 2001-2017
</metadata>
<g transform="translate(0.000000,920.000000) scale(0.100000,-0.100000)"
fill="#000000" stroke="none">
<path d="M4586 8708 c-16 -26 -149 -264 -178 -318 -24 -45 -19 -63 42 -151 27
-40 50 -76 50 -81 0 -4 -24 -8 -53 -8 -238 0 -756 -118 -1318 -299 -413 -133
-616 -192 -804 -233 -81 -17 -393 -17 -461 0 l-52 13 46 102 c74 164 69 245
-19 341 -72 79 -142 111 -239 110 -191 -2 -324 -129 -324 -310 0 -60 5 -81 32
-137 35 -70 76 -111 165 -162 50 -29 67 -50 67 -86 0 -12 -149 -281 -332 -598
-182 -317 -385 -670 -451 -784 -65 -114 -130 -215 -143 -224 -13 -8 -24 -20
-24 -25 0 -6 23 -31 52 -56 357 -324 771 -449 1194 -363 196 40 359 104 498
195 83 53 236 189 236 208 0 6 -13 27 -28 47 -16 20 -91 146 -167 281 -76 135
-264 468 -418 740 -154 272 -286 510 -294 529 -12 28 -12 36 -1 47 18 19 44
19 168 4 140 -17 398 -8 555 19 66 12 224 46 350 75 447 106 632 131 905 123
148 -4 201 -9 265 -26 138 -38 177 -74 181 -166 6 -148 97 -301 235 -392 l40
-26 -31 -20 c-34 -22 -47 -56 -34 -96 17 -51 307 -572 314 -564 5 4 82 140
173 302 l165 295 -34 40 c-19 22 -34 43 -34 46 0 4 27 28 59 54 106 83 175
201 193 329 5 39 17 86 26 102 22 40 143 100 240 120 189 39 569 2 987 -96
239 -56 425 -95 530 -111 106 -15 486 -16 557 -1 26 6 59 8 74 5 53 -10 87 56
-539 -1047 -165 -291 -314 -547 -330 -567 -16 -20 -28 -40 -26 -45 2 -5 39
-41 81 -80 377 -348 953 -450 1418 -252 131 55 304 171 460 307 l45 40 -35 21
c-41 23 -25 -4 -802 1350 -90 158 -128 233 -128 256 0 36 22 58 114 120 176
117 196 361 43 502 -55 51 -132 76 -230 75 -82 -1 -154 -31 -210 -88 -64 -64
-82 -107 -82 -199 0 -76 2 -84 48 -169 26 -48 47 -89 47 -91 0 -1 -28 -9 -62
-16 -41 -9 -120 -14 -223 -13 -195 1 -304 22 -625 119 -233 71 -868 256 -1070
312 -174 48 -326 78 -530 103 -96 11 -179 22 -184 23 -4 2 12 32 36 68 25 35
48 77 52 92 8 32 -15 91 -62 159 -16 24 -54 89 -86 146 -31 56 -59 102 -61
102 -3 0 -11 -10 -19 -22z m-3036 -2103 l0 -735 -421 0 c-397 0 -421 1 -415
18 6 15 129 229 425 743 53 91 166 288 251 437 85 149 156 271 158 272 1 0 2
-331 2 -735z m6298 435 c93 -162 240 -419 327 -570 87 -151 191 -333 232 -405
41 -71 83 -145 94 -162 l18 -33 -424 0 -425 0 0 737 c0 405 2 734 4 732 2 -2
80 -137 174 -299z m-6100 99 c57 -101 232 -410 388 -687 157 -276 293 -517
304 -535 11 -17 20 -35 20 -39 0 -5 -184 -8 -408 -8 -304 0 -411 3 -420 12
-17 17 -17 1451 0 1446 6 -2 58 -87 116 -189z m5852 -523 c0 -636 -2 -716 -16
-730 -13 -14 -66 -16 -420 -16 -222 0 -404 2 -404 5 0 3 65 119 143 258 79
138 264 465 412 725 147 259 272 472 277 472 4 0 8 -321 8 -714z"/>
<path d="M3963 6766 c-4 -8 -526 -535 -1159 -1173 -632 -637 -1259 -1268
-1392 -1403 l-241 -245 147 -150 c81 -82 499 -505 928 -940 429 -434 807 -818
839 -853 32 -34 61 -62 64 -62 4 0 12 15 19 34 15 42 81 118 126 146 71 43
120 50 401 55 243 4 271 6 309 25 140 67 226 219 213 374 -5 58 -15 88 -58
172 -60 120 -60 138 5 211 89 100 94 123 44 213 l-32 58 74 89 c40 48 80 95
87 105 13 15 11 18 -20 33 -50 24 -69 48 -74 99 -6 51 10 101 35 112 10 3 53
12 97 20 92 15 125 41 125 98 0 19 -22 143 -49 277 -160 794 -161 802 -122
957 47 182 65 321 65 502 0 311 -62 572 -217 911 -33 72 -193 349 -202 349 -2
0 -8 -6 -12 -14z"/>
<path d="M5176 6658 c-63 -96 -157 -289 -202 -413 -45 -126 -109 -373 -126
-490 -7 -50 -12 -170 -12 -270 1 -190 13 -282 60 -467 13 -54 25 -124 25 -156
1 -53 -75 -481 -156 -881 -40 -198 -41 -211 -20 -251 20 -38 47 -52 104 -52
68 0 109 -15 126 -48 23 -44 19 -67 -25 -146 -22 -40 -40 -78 -40 -84 0 -6 32
-51 70 -100 l71 -89 -30 -48 c-27 -45 -35 -72 -32 -115 1 -10 24 -43 52 -74
56 -61 82 -113 73 -141 -3 -10 -26 -58 -51 -108 -69 -139 -69 -242 -2 -377 38
-75 80 -122 132 -147 35 -17 69 -21 197 -26 347 -12 411 -16 462 -31 94 -28
168 -93 203 -179 l17 -38 991 998 c546 549 993 1003 995 1009 1 7 -91 104
-205 216 -114 112 -350 344 -523 515 -174 170 -581 571 -905 890 -325 318
-725 713 -890 877 -165 164 -303 298 -306 298 -3 0 -27 -33 -53 -72z"/>
<path d="M3441 1656 c-10 -12 -8 -16 11 -21 13 -4 271 -254 573 -556 471 -470
555 -549 579 -549 25 0 96 66 475 442 245 243 504 499 576 570 l130 128 -1166
0 c-994 0 -1168 -2 -1178 -14z"/>
</g>
</svg>
