<?xml version="1.0" standalone="no"?>
<!DOCTYPE svg PUBLIC "-//W3C//DTD SVG 20010904//EN"
 "http://www.w3.org/TR/2001/REC-SVG-20010904/DTD/svg10.dtd">
<svg version="1.0" xmlns="http://www.w3.org/2000/svg"
 width="640.000000pt" height="640.000000pt" viewBox="0 0 640.000000 640.000000"
 preserveAspectRatio="xMidYMid meet">
<metadata>
Created by potrace 1.14, written by Peter Selinger 2001-2017
</metadata>
<g transform="translate(0.000000,640.000000) scale(0.100000,-0.100000)"
fill="#000000" stroke="none">
<path d="M4140 4621 c-84 -32 -483 -186 -663 -255 -64 -24 -122 -48 -127 -51
-5 -3 -26 6 -46 21 l-35 27 3 74 c2 40 0 73 -4 74 -10 0 -126 0 -135 0 -5 -1
-7 -37 -5 -81 2 -51 0 -80 -7 -80 -27 0 -81 -64 -97 -114 -15 -46 -21 -55 -53
-66 -20 -7 -85 -32 -146 -55 -60 -24 -171 -66 -245 -95 -74 -28 -162 -62 -195
-75 -33 -13 -109 -42 -168 -65 -120 -46 -114 -37 -76 -127 10 -24 24 -43 30
-43 7 0 46 13 88 30 167 65 644 248 719 276 34 13 66 26 71 29 5 3 25 -5 45
-17 l35 -23 1 -922 0 -923 70 0 70 0 0 923 0 924 25 11 c31 14 85 88 85 116 0
41 -48 19 565 256 187 73 341 133 342 134 8 7 -47 121 -59 123 -7 1 -47 -11
-88 -26z"/>
<path d="M4321 4273 c-5 -10 -29 -63 -54 -118 -25 -55 -84 -185 -132 -290
-152 -332 -185 -407 -185 -421 0 -15 65 -20 87 -6 14 9 65 116 218 457 37 83
71 154 75 159 5 4 18 -14 30 -40 12 -27 42 -92 65 -144 133 -293 195 -424 207
-431 23 -15 88 -11 88 5 0 14 -21 63 -99 229 -22 49 -41 90 -41 92 0 3 -25 57
-55 120 -30 64 -55 118 -55 120 0 3 -22 52 -50 109 -27 58 -56 121 -64 141
-17 40 -21 42 -35 18z"/>
<path d="M2042 3579 c-11 -24 -32 -71 -47 -104 -224 -488 -315 -690 -315 -703
0 -8 17 -12 48 -12 48 0 49 1 67 43 25 58 188 414 234 512 l38 80 27 -60 c15
-33 79 -176 144 -317 l117 -258 46 0 c25 0 48 2 51 5 5 5 -60 150 -217 490
-12 28 -33 73 -45 100 -79 176 -114 251 -121 259 -5 5 -17 -10 -27 -35z"/>
<path d="M3873 3265 c10 -188 119 -331 304 -401 61 -23 79 -25 173 -22 121 5
187 27 265 86 115 87 174 198 183 339 l4 83 -467 2 -467 3 5 -90z"/>
<path d="M1600 2618 c0 -176 94 -323 255 -403 188 -93 406 -55 550 96 77 81
116 166 124 275 4 47 5 87 2 90 -2 2 -213 4 -468 4 l-463 0 0 -62z"/>
<path d="M2578 2010 c-2 -49 1 -71 10 -75 17 -6 1206 -7 1223 0 11 4 13 23 11
75 l-4 70 -618 0 -618 0 -4 -70z"/>
<path d="M2244 1876 c-3 -7 -4 -40 -2 -72 l3 -59 955 0 955 0 0 70 0 70 -953
3 c-798 2 -953 0 -958 -12z"/>
</g>
</svg>
