<svg width="55" height="56" viewBox="0 0 55 56" fill="none" xmlns="http://www.w3.org/2000/svg">
<g opacity="0.1">
<path d="M50.5634 2.64844L39.5526 5.85068L44.0106 2.8332C41.1962 3.46914 37.6405 4.71309 33.1718 6.7208L25.8778 14.3252L28.4667 9.01318C25.9638 10.4054 23.3104 12.2305 20.7538 14.3682L19.0565 21.2754L18.6913 16.1621C16.1669 18.4824 13.7929 21.0605 11.8271 23.7783C9.76133 26.625 8.14678 29.6328 7.33789 32.6299L4.31719 30.6103C4.58789 33.1562 5.42471 35.3691 6.79756 37.3994L3.18604 36.293C4.00674 38.8174 5.34844 40.4502 7.61719 41.7715C6.34639 45.3486 5.7502 49.0869 5.10996 52.8145L7.08652 53.1475C9.37891 30.2988 25.5556 15.7324 40.1757 9.27852L40.9169 11.1455C27.8437 17 17.6815 26.8828 12.3642 41.127C14.3085 41.1377 16.2099 40.9014 17.9716 40.4502L18.4979 33.9082L19.9052 39.8701C21.0761 39.4404 22.1503 38.9248 23.1063 38.3232L20.8827 33.6504L24.4062 37.3887C25.2655 36.7012 25.9745 35.9277 26.5116 35.0791C29.7772 29.9766 33.1933 24.9062 39.9179 20.6631L35.0087 18.9229L42.539 19.1484C43.7636 18.5254 45.0526 17.7627 46.0302 17.043L40.6913 16.6133L48.7157 14.7227C49.3388 14.0996 49.9188 13.4443 50.4452 12.7891C52.3036 10.4322 53.5604 7.97871 53.2597 5.74756C53.12 4.63145 52.454 3.58193 51.369 2.99434C51.1005 2.85469 50.8105 2.73115 50.5634 2.64844Z" fill="#222222"/>
</g>
</svg>
