<svg width="32" height="33" viewBox="0 0 32 33" fill="none" xmlns="http://www.w3.org/2000/svg">
<path d="M5.33317 27.1666C4.59984 27.1666 3.97184 26.9053 3.44917 26.3826C2.92651 25.8599 2.66562 25.2324 2.66651 24.4999V8.49992C2.66651 7.76659 2.92784 7.13859 3.45051 6.61592C3.97317 6.09325 4.60073 5.83237 5.33317 5.83325H26.6665C27.3998 5.83325 28.0278 6.09459 28.5505 6.61725C29.0732 7.13992 29.3341 7.76748 29.3332 8.49992V24.4999C29.3332 25.2333 29.0718 25.8613 28.5492 26.3839C28.0265 26.9066 27.399 27.1675 26.6665 27.1666H5.33317ZM15.9998 17.8333L5.33317 11.1666V24.4999H26.6665V11.1666L15.9998 17.8333ZM15.9998 15.1666L26.6665 8.49992H5.33317L15.9998 15.1666ZM5.33317 11.1666V8.49992V24.4999V11.1666Z" fill="#F8F5F4"/>
</svg>
