<svg width="32" height="32" viewBox="0 0 32 32" fill="none" xmlns="http://www.w3.org/2000/svg">
<path d="M15.9998 8.66675C16.8839 8.66675 17.7317 9.01794 18.3569 9.64306C18.982 10.2682 19.3332 11.116 19.3332 12.0001C19.3332 12.4378 19.247 12.8713 19.0794 13.2757C18.9119 13.6801 18.6664 14.0476 18.3569 14.3571C18.0473 14.6666 17.6799 14.9122 17.2754 15.0797C16.871 15.2472 16.4376 15.3334 15.9998 15.3334C15.1158 15.3334 14.2679 14.9822 13.6428 14.3571C13.0177 13.732 12.6665 12.8841 12.6665 12.0001C12.6665 11.116 13.0177 10.2682 13.6428 9.64306C14.2679 9.01794 15.1158 8.66675 15.9998 8.66675ZM15.9998 2.66675C18.4752 2.66675 20.8492 3.65008 22.5995 5.40042C24.3498 7.15076 25.3332 9.52473 25.3332 12.0001C25.3332 19.0001 15.9998 29.3334 15.9998 29.3334C15.9998 29.3334 6.6665 19.0001 6.6665 12.0001C6.6665 9.52473 7.64983 7.15076 9.40017 5.40042C11.1505 3.65008 13.5245 2.66675 15.9998 2.66675ZM15.9998 5.33341C14.2317 5.33341 12.536 6.03579 11.2858 7.28604C10.0355 8.53628 9.33317 10.232 9.33317 12.0001C9.33317 13.3334 9.33317 16.0001 15.9998 24.9467C22.6665 16.0001 22.6665 13.3334 22.6665 12.0001C22.6665 10.232 21.9641 8.53628 20.7139 7.28604C19.4636 6.03579 17.7679 5.33341 15.9998 5.33341Z" fill="#F8F5F4"/>
</svg>
