<svg width="22" height="20" viewBox="0 0 22 20" fill="none" xmlns="http://www.w3.org/2000/svg">
<path d="M20.6098 9.7875C19.8533 7.88603 18.5399 6.24164 16.8321 5.05755C15.1243 3.87347 13.0968 3.20161 11.0003 3.125C8.90381 3.20161 6.87635 3.87347 5.16852 5.05755C3.4607 6.24164 2.14737 7.88603 1.39086 9.7875C1.33977 9.92482 1.33977 10.0752 1.39086 10.2125C2.14737 12.114 3.4607 13.7584 5.16852 14.9424C6.87635 16.1265 8.90381 16.7984 11.0003 16.875C13.0968 16.7984 15.1243 16.1265 16.8321 14.9424C18.5399 13.7584 19.8533 12.114 20.6098 10.2125C20.6609 10.0752 20.6609 9.92482 20.6098 9.7875ZM11.0003 15.625C7.59134 15.625 3.9894 13.1687 2.6837 10C3.9894 6.83125 7.59134 4.375 11.0003 4.375C14.4093 4.375 18.0112 6.83125 19.3169 10C18.0112 13.1687 14.4093 15.625 11.0003 15.625Z" fill="#4F8FF0"/>
<path d="M11.0003 6.25C10.2371 6.25 9.49091 6.46993 8.85627 6.88199C8.22162 7.29404 7.72698 7.87971 7.43488 8.56494C7.14279 9.25016 7.06636 10.0042 7.21527 10.7316C7.36418 11.459 7.73173 12.1272 8.27146 12.6517C8.81118 13.1761 9.49883 13.5333 10.2474 13.6779C10.9961 13.8226 11.772 13.7484 12.4772 13.4645C13.1824 13.1807 13.7851 12.7001 14.2092 12.0834C14.6332 11.4667 14.8596 10.7417 14.8596 10C14.8596 9.00544 14.453 8.05161 13.7292 7.34835C13.0055 6.64509 12.0239 6.25 11.0003 6.25ZM11.0003 12.5C10.4915 12.5 9.99406 12.3534 9.57096 12.0787C9.14786 11.804 8.8181 11.4135 8.62337 10.9567C8.42864 10.4999 8.37769 9.99723 8.47696 9.51227C8.57623 9.02732 8.82127 8.58186 9.18108 8.23223C9.5409 7.8826 9.99933 7.6445 10.4984 7.54804C10.9975 7.45157 11.5148 7.50108 11.9849 7.6903C12.455 7.87952 12.8569 8.19995 13.1396 8.61107C13.4223 9.0222 13.5732 9.50555 13.5732 10C13.5732 10.663 13.3021 11.2989 12.8196 11.7678C12.3371 12.2366 11.6827 12.5 11.0003 12.5Z" fill="#4F8FF0"/>
</svg>
