<svg width="372" height="210" viewBox="0 0 372 210" fill="none" xmlns="http://www.w3.org/2000/svg">
<mask id="path-1-inside-1_927_396" fill="white">
<path d="M0 0H35V35H0V0Z"/>
</mask>
<path d="M0 0V-1H-1V0H0ZM0 1H35V-1H0V1ZM1 35V0H-1V35H1Z" fill="white" mask="url(#path-1-inside-1_927_396)"/>
<mask id="path-3-inside-2_927_396" fill="white">
<path d="M337 0H372V35H337V0Z"/>
</mask>
<path d="M372 0H373V-1H372V0ZM337 1H372V-1H337V1ZM371 0V35H373V0H371Z" fill="white" mask="url(#path-3-inside-2_927_396)"/>
<mask id="path-5-inside-3_927_396" fill="white">
<path d="M0 175H35V210H0V175Z"/>
</mask>
<path d="M0 210H-1V211H0V210ZM35 209H0V211H35V209ZM1 210V175H-1V210H1Z" fill="white" mask="url(#path-5-inside-3_927_396)"/>
<mask id="path-7-inside-4_927_396" fill="white">
<path d="M337 175H372V210H337V175Z"/>
</mask>
<path d="M372 210V211H373V210H372ZM371 175V210H373V175H371ZM372 209H337V211H372V209Z" fill="white" mask="url(#path-7-inside-4_927_396)"/>
</svg>
